<mxfile host="app.diagrams.net" agent="Mozilla/5.0 (Windows NT 10.0; Win64; x64) AppleWebKit/537.36 (KHTML, like Gecko) Chrome/136.0.0.0 Safari/537.36" version="27.0.6">
  <diagram name="Page-1" id="-25PQm-cHnUzXyg8VCm5">
    <mxGraphModel dx="2316" dy="1249" grid="1" gridSize="10" guides="1" tooltips="1" connect="1" arrows="1" fold="1" page="1" pageScale="1" pageWidth="850" pageHeight="1100" math="0" shadow="0">
      <root>
        <mxCell id="0" />
        <mxCell id="1" parent="0" />
        <mxCell id="cFmYGeDBjLuNKvxDgBD3-1" value="Admin" style="ellipse;whiteSpace=wrap;html=1;" vertex="1" parent="1">
          <mxGeometry x="290" y="90" width="120" height="80" as="geometry" />
        </mxCell>
        <mxCell id="cFmYGeDBjLuNKvxDgBD3-11" value="kader posyandu" style="ellipse;whiteSpace=wrap;html=1;" vertex="1" parent="1">
          <mxGeometry x="630" y="80" width="120" height="80" as="geometry" />
        </mxCell>
        <mxCell id="cFmYGeDBjLuNKvxDgBD3-12" value="" style="endArrow=none;html=1;rounded=0;entryX=0.5;entryY=1;entryDx=0;entryDy=0;" edge="1" parent="1" target="cFmYGeDBjLuNKvxDgBD3-11">
          <mxGeometry width="50" height="50" relative="1" as="geometry">
            <mxPoint x="690" y="280" as="sourcePoint" />
            <mxPoint x="760" y="380" as="targetPoint" />
          </mxGeometry>
        </mxCell>
        <mxCell id="cFmYGeDBjLuNKvxDgBD3-13" value="mendata anak" style="rounded=0;whiteSpace=wrap;html=1;" vertex="1" parent="1">
          <mxGeometry x="630" y="280" width="120" height="60" as="geometry" />
        </mxCell>
        <mxCell id="cFmYGeDBjLuNKvxDgBD3-14" value="" style="endArrow=none;html=1;rounded=0;entryX=0.5;entryY=1;entryDx=0;entryDy=0;" edge="1" parent="1" target="cFmYGeDBjLuNKvxDgBD3-13">
          <mxGeometry width="50" height="50" relative="1" as="geometry">
            <mxPoint x="690" y="470" as="sourcePoint" />
            <mxPoint x="860" y="480" as="targetPoint" />
          </mxGeometry>
        </mxCell>
        <mxCell id="cFmYGeDBjLuNKvxDgBD3-15" value="menambahkan anak&quot;" style="rounded=0;whiteSpace=wrap;html=1;" vertex="1" parent="1">
          <mxGeometry x="630" y="470" width="120" height="60" as="geometry" />
        </mxCell>
        <mxCell id="cFmYGeDBjLuNKvxDgBD3-16" value="" style="endArrow=none;html=1;rounded=0;entryX=0.5;entryY=1;entryDx=0;entryDy=0;" edge="1" parent="1" target="cFmYGeDBjLuNKvxDgBD3-15">
          <mxGeometry width="50" height="50" relative="1" as="geometry">
            <mxPoint x="690" y="610" as="sourcePoint" />
            <mxPoint x="860" y="480" as="targetPoint" />
          </mxGeometry>
        </mxCell>
        <mxCell id="cFmYGeDBjLuNKvxDgBD3-19" value="" style="edgeStyle=orthogonalEdgeStyle;rounded=0;orthogonalLoop=1;jettySize=auto;html=1;" edge="1" parent="1" source="cFmYGeDBjLuNKvxDgBD3-17" target="cFmYGeDBjLuNKvxDgBD3-18">
          <mxGeometry relative="1" as="geometry" />
        </mxCell>
        <mxCell id="cFmYGeDBjLuNKvxDgBD3-17" value="menambahkan bb" style="rounded=1;whiteSpace=wrap;html=1;" vertex="1" parent="1">
          <mxGeometry x="630" y="610" width="120" height="60" as="geometry" />
        </mxCell>
        <mxCell id="cFmYGeDBjLuNKvxDgBD3-21" value="" style="edgeStyle=orthogonalEdgeStyle;rounded=0;orthogonalLoop=1;jettySize=auto;html=1;" edge="1" parent="1" source="cFmYGeDBjLuNKvxDgBD3-18" target="cFmYGeDBjLuNKvxDgBD3-20">
          <mxGeometry relative="1" as="geometry" />
        </mxCell>
        <mxCell id="cFmYGeDBjLuNKvxDgBD3-18" value="mengedit bb" style="whiteSpace=wrap;html=1;rounded=1;" vertex="1" parent="1">
          <mxGeometry x="630" y="750" width="120" height="60" as="geometry" />
        </mxCell>
        <mxCell id="cFmYGeDBjLuNKvxDgBD3-24" value="" style="edgeStyle=orthogonalEdgeStyle;rounded=0;orthogonalLoop=1;jettySize=auto;html=1;" edge="1" parent="1" source="cFmYGeDBjLuNKvxDgBD3-20" target="cFmYGeDBjLuNKvxDgBD3-23">
          <mxGeometry relative="1" as="geometry" />
        </mxCell>
        <mxCell id="cFmYGeDBjLuNKvxDgBD3-20" value="menambahkan tb" style="whiteSpace=wrap;html=1;rounded=1;" vertex="1" parent="1">
          <mxGeometry x="630" y="890" width="120" height="60" as="geometry" />
        </mxCell>
        <mxCell id="cFmYGeDBjLuNKvxDgBD3-22" value="" style="endArrow=classic;startArrow=classic;html=1;rounded=0;exitX=1.015;exitY=0.643;exitDx=0;exitDy=0;exitPerimeter=0;entryX=-0.003;entryY=0.707;entryDx=0;entryDy=0;entryPerimeter=0;" edge="1" parent="1" source="cFmYGeDBjLuNKvxDgBD3-1" target="cFmYGeDBjLuNKvxDgBD3-11">
          <mxGeometry width="50" height="50" relative="1" as="geometry">
            <mxPoint x="810" y="560" as="sourcePoint" />
            <mxPoint x="860" y="510" as="targetPoint" />
          </mxGeometry>
        </mxCell>
        <mxCell id="cFmYGeDBjLuNKvxDgBD3-26" value="" style="edgeStyle=orthogonalEdgeStyle;rounded=0;orthogonalLoop=1;jettySize=auto;html=1;" edge="1" parent="1" source="cFmYGeDBjLuNKvxDgBD3-23" target="cFmYGeDBjLuNKvxDgBD3-25">
          <mxGeometry relative="1" as="geometry" />
        </mxCell>
        <mxCell id="cFmYGeDBjLuNKvxDgBD3-23" value="mengedit tb" style="whiteSpace=wrap;html=1;rounded=1;" vertex="1" parent="1">
          <mxGeometry x="630" y="1030" width="120" height="60" as="geometry" />
        </mxCell>
        <mxCell id="cFmYGeDBjLuNKvxDgBD3-28" value="" style="edgeStyle=orthogonalEdgeStyle;rounded=0;orthogonalLoop=1;jettySize=auto;html=1;" edge="1" parent="1" source="cFmYGeDBjLuNKvxDgBD3-25">
          <mxGeometry relative="1" as="geometry">
            <mxPoint x="1020" y="920" as="targetPoint" />
          </mxGeometry>
        </mxCell>
        <mxCell id="cFmYGeDBjLuNKvxDgBD3-25" value="hasil data" style="whiteSpace=wrap;html=1;rounded=1;" vertex="1" parent="1">
          <mxGeometry x="830" y="1030" width="120" height="60" as="geometry" />
        </mxCell>
        <mxCell id="cFmYGeDBjLuNKvxDgBD3-29" value="selesai" style="whiteSpace=wrap;html=1;rounded=1;" vertex="1" parent="1">
          <mxGeometry x="1030" y="890" width="120" height="60" as="geometry" />
        </mxCell>
        <mxCell id="cFmYGeDBjLuNKvxDgBD3-31" value="login sebagai" style="ellipse;whiteSpace=wrap;html=1;" vertex="1" parent="1">
          <mxGeometry x="60" y="180" width="120" height="80" as="geometry" />
        </mxCell>
        <mxCell id="cFmYGeDBjLuNKvxDgBD3-32" value="" style="endArrow=classic;startArrow=classic;html=1;rounded=0;entryX=0;entryY=1;entryDx=0;entryDy=0;exitX=0.917;exitY=0.297;exitDx=0;exitDy=0;exitPerimeter=0;" edge="1" parent="1" source="cFmYGeDBjLuNKvxDgBD3-31" target="cFmYGeDBjLuNKvxDgBD3-1">
          <mxGeometry width="50" height="50" relative="1" as="geometry">
            <mxPoint x="330" y="360" as="sourcePoint" />
            <mxPoint x="380" y="310" as="targetPoint" />
          </mxGeometry>
        </mxCell>
        <mxCell id="cFmYGeDBjLuNKvxDgBD3-33" value="" style="endArrow=classic;html=1;rounded=0;exitX=1;exitY=1;exitDx=0;exitDy=0;entryX=0.25;entryY=0.972;entryDx=0;entryDy=0;entryPerimeter=0;" edge="1" parent="1" source="cFmYGeDBjLuNKvxDgBD3-31" target="cFmYGeDBjLuNKvxDgBD3-11">
          <mxGeometry width="50" height="50" relative="1" as="geometry">
            <mxPoint x="220" y="280" as="sourcePoint" />
            <mxPoint x="270" y="230" as="targetPoint" />
          </mxGeometry>
        </mxCell>
      </root>
    </mxGraphModel>
  </diagram>
</mxfile>
